<svg xmlns="http://www.w3.org/2000/svg" viewBox="0 0 200 200" fill="none">
  <rect width="200" height="200" rx="12" fill="#111A22"/>
  <rect x="20" y="20" width="50" height="50" rx="4" fill="#2C3E50"/>
  <rect x="25" y="25" width="40" height="40" rx="2" fill="#111A22"/>
  <rect x="32" y="32" width="26" height="26" rx="1" fill="#A7B0B8" opacity="0.4"/>
  <rect x="130" y="20" width="50" height="50" rx="4" fill="#2C3E50"/>
  <rect x="135" y="25" width="40" height="40" rx="2" fill="#111A22"/>
  <rect x="142" y="32" width="26" height="26" rx="1" fill="#A7B0B8" opacity="0.4"/>
  <rect x="20" y="130" width="50" height="50" rx="4" fill="#2C3E50"/>
  <rect x="25" y="135" width="40" height="40" rx="2" fill="#111A22"/>
  <rect x="32" y="142" width="26" height="26" rx="1" fill="#A7B0B8" opacity="0.4"/>
  <rect x="80" y="80" width="14" height="14" rx="2" fill="#E07856" opacity="0.5"/>
  <rect x="100" y="80" width="14" height="14" rx="2" fill="#A7B0B8" opacity="0.2"/>
  <rect x="80" y="100" width="14" height="14" rx="2" fill="#A7B0B8" opacity="0.2"/>
  <rect x="100" y="100" width="14" height="14" rx="2" fill="#A7B0B8" opacity="0.3"/>
  <rect x="120" y="100" width="14" height="14" rx="2" fill="#A7B0B8" opacity="0.2"/>
  <rect x="140" y="80" width="14" height="14" rx="2" fill="#A7B0B8" opacity="0.15"/>
  <rect x="80" y="140" width="14" height="14" rx="2" fill="#A7B0B8" opacity="0.15"/>
  <rect x="130" y="130" width="50" height="50" rx="4" fill="#2C3E50" opacity="0.5"/>
</svg>
